<svg width="20" height="20" viewBox="0 0 20 20" fill="none" xmlns="http://www.w3.org/2000/svg">
<path d="M0.427841 11.6606L8.99992 19.5899C9.12707 19.7191 9.28162 19.8223 9.45377 19.8929C9.62593 19.9635 9.81194 20 10 20C10.1881 20 10.3741 19.9635 10.5462 19.8929C10.7184 19.8223 10.8729 19.7191 11.0001 19.5899L19.5722 11.6607C19.8197 11.4247 19.9698 11.1147 19.9959 10.7855C20.022 10.4562 19.9226 10.129 19.715 9.86158C19.5994 9.70099 19.4459 9.56725 19.2662 9.47063C19.0865 9.37402 18.8855 9.31709 18.6786 9.30422C18.4717 9.29135 18.2643 9.32289 18.0725 9.3964C17.8807 9.46992 17.7095 9.58346 17.572 9.72831L11.4287 15.4587L11.4287 1.33264C11.4287 0.979205 11.2782 0.64024 11.0102 0.390321C10.7423 0.140401 10.3789 -1.4026e-06 10 -1.43573e-06C9.62109 -1.46885e-06 9.2577 0.140401 8.98977 0.39032C8.72184 0.64024 8.57132 0.979205 8.57132 1.33264L8.57132 15.4587L2.428 9.72831C2.29054 9.58346 2.11933 9.46992 1.9275 9.3964C1.73567 9.32288 1.52834 9.29135 1.32141 9.30422C1.11449 9.31708 0.913472 9.37401 0.733806 9.47063C0.554139 9.56725 0.4006 9.70099 0.284975 9.86158C0.0774458 10.129 -0.0220425 10.4562 0.00410173 10.7855C0.030246 11.1147 0.180337 11.4247 0.427841 11.6606Z" fill="black"/>
</svg>
