<svg width="32" height="32" viewBox="0 0 32 32" fill="none" xmlns="http://www.w3.org/2000/svg">
<rect width="32" height="32" rx="15" fill="url(#paint0_linear_109_114)"/>
<path d="M20.1096 18.7022H19.0198C18.6072 18.7022 18.4796 18.3741 17.7384 17.6229C17.0927 16.9977 16.8071 16.9137 16.6486 16.9137C16.426 16.9137 16.3625 16.9772 16.3625 17.2843V18.2686C16.3625 18.5337 16.278 18.6922 15.5793 18.6922C14.1699 18.5977 12.9585 17.8289 12.2553 16.7086L12.2448 16.6911C11.4285 15.6773 10.8268 14.4554 10.5293 13.119L10.5183 13.0605C10.5183 12.902 10.5818 12.7534 10.8889 12.7534H11.9787C12.2538 12.7534 12.3598 12.8805 12.4663 13.1766C13.0055 14.733 13.9058 16.0984 14.2764 16.0984C14.4139 16.0984 14.4774 16.0349 14.4774 15.6858V14.0758C14.4349 13.3346 14.0433 13.2716 14.0433 13.007C14.0478 12.8655 14.1638 12.7524 14.3059 12.7524C14.3104 12.7524 14.3144 12.7524 14.3189 12.7529H14.3184H16.0334C16.2665 12.7529 16.351 12.88 16.351 13.155V15.3257C16.351 15.5583 16.457 15.6433 16.5206 15.6433C16.6581 15.6433 16.7751 15.5583 17.0287 15.3047C17.5559 14.661 18.0065 13.9248 18.3501 13.131L18.3731 13.071C18.4456 12.8895 18.6197 12.7634 18.8232 12.7634C18.8328 12.7634 18.8418 12.7639 18.8513 12.7644H18.8498H19.9396C20.2677 12.7644 20.3422 12.933 20.2677 13.1665C19.8305 14.1293 19.3394 14.9566 18.7702 15.7228L18.7962 15.6858C18.6802 15.8764 18.6377 15.9609 18.7962 16.1735C18.9123 16.332 19.2939 16.6601 19.548 16.9567C19.9156 17.3203 20.2237 17.7434 20.4562 18.2106L20.4687 18.2381C20.5748 18.5442 20.4157 18.7032 20.1086 18.7032L20.1096 18.7022ZM17.8024 8H13.1976C8.9948 8 8 8.9948 8 13.1976V17.8024C8 22.0052 8.9948 23 13.1976 23H17.8024C22.0052 23 23 22.0052 23 17.8024V13.1976C23 8.9948 21.9942 8 17.8024 8Z" fill="white"/>
<defs>
<linearGradient id="paint0_linear_109_114" x1="1.08033e-07" y1="32" x2="32" y2="1.08033e-07" gradientUnits="userSpaceOnUse">
<stop stop-color="#3E00FF"/>
<stop offset="1" stop-color="#0052FF"/>
</linearGradient>
</defs>
</svg>
